{"glyphs":{":":{"x_min":0,"x_max":282,"ha":282,"o":"m 174 427 l 230 364 q 232 361 234 358 q 235 354 235 348 q 235 344 233 340 q 231 336 227 332 l 160 268 q 157 265 153 264 q 149 262 145 262 q 131 262 98 297 q 64 332 64 347 q 64 353 69 361 q 75 369 91 385 q 119 414 133 425 q 147 435 157 435 q 161 435 166 433 q 171 431 174 427 z m 149 156 l 205 93 q 208 90 209 86 q 210 83 210 77 q 210 73 208 68 q 206 63 202 60 l 135 -3 q 132 -6 128 -7 q 124 -9 118 -9 q 105 -9 72 25 q 39 60 39 75 q 39 82 45 90 q 51 99 66 114 q 94 143 108 154 q 123 164 132 164 q 136 164 141 162 q 146 159 149 156 z"},"$":{"x_min":0,"x_max":541,"ha":541,"o":"m 251 430 l 275 640 l 271 640 q 220 640 189 610 q 157 581 157 533 q 157 496 179 472 q 201 447 251 430 z m 254 36 q 317 39 359 80 q 401 120 401 178 q 401 226 372 258 q 343 290 285 306 z m 203 2 q 106 20 55 45 q 4 71 4 102 q 4 115 12 144 q 20 173 33 203 l 34 206 q 53 247 65 247 q 71 247 75 242 q 78 238 78 229 q 78 226 78 217 q 77 207 77 201 q 77 136 111 94 q 145 51 207 38 l 240 322 q 154 351 112 394 q 69 437 69 493 q 69 567 127 618 q 185 668 279 674 l 288 748 q 290 767 296 773 q 301 780 313 780 q 322 780 328 772 q 334 765 334 754 l 334 750 l 326 674 q 394 664 443 638 q 493 611 493 590 q 493 559 474 515 q 454 470 438 470 q 423 470 422 502 q 421 533 416 548 q 404 586 380 610 q 356 633 322 639 l 297 414 q 397 382 443 333 q 489 285 489 212 q 489 121 423 61 q 357 2 250 -1 l 237 -109 q 235 -124 229 -130 q 224 -137 212 -137 q 201 -137 196 -131 q 191 -125 191 -112 l 191 -104 z"},"?":{"x_min":0,"x_max":412,"ha":412,"o":"m 174 156 l 229 93 q 232 90 233 86 q 235 82 235 77 q 235 73 233 68 q 230 63 227 60 l 159 -3 q 156 -6 152 -7 q 148 -9 143 -9 q 130 -9 97 25 q 64 60 64 75 q 64 82 70 90 q 76 99 91 114 q 119 143 133 154 q 147 164 157 164 q 161 164 166 162 q 171 159 174 156 z m 143 316 q 143 340 151 365 q 158 390 182 434 q 187 443 196 460 q 250 562 250 591 q 250 616 232 635 q 215 653 190 653 q 162 653 135 630 q 109 607 102 607 q 97 607 94 609 q 91 611 91 615 q 91 650 133 681 q 176 712 231 712 q 293 712 335 677 q 377 642 377 590 q 377 564 366 539 q 354 514 333 492 q 319 478 290 451 q 235 400 216 372 q 193 339 188 297 q 184 256 174 256 q 160 256 151 272 q 143 288 143 316 z"},"<":{"x_min":0,"x_max":833,"ha":833,"o":"m 704 484 l 248 298 l 704 112 l 704 23 l 129 259 l 129 337 l 704 574 z"},"'":{"x_min":0,"x_max":175,"ha":175,"o":"m 78 418 l 42 642 q 42 646 41 650 q 41 654 41 661 q 41 687 53 700 q 65 714 87 714 q 110 714 122 700 q 134 687 134 661 q 134 653 134 649 q 133 645 133 642 l 97 418 z"},"=":{"x_min":0,"x_max":833,"ha":833,"o":"m 709 238 l 709 157 l 124 157 l 124 238 z m 709 440 l 709 358 l 124 358 l 124 440 z"},"a":{"x_min":0,"x_max":491,"ha":491,"o":"m 299 201 l 318 318 q 319 329 320 338 q 321 347 321 355 q 321 379 308 391 q 294 404 269 404 q 204 404 159 334 q 114 265 114 163 q 114 110 131 83 q 148 57 182 57 q 222 57 255 97 q 289 137 299 201 z m 395 168 q 393 153 392 140 q 391 126 391 112 q 391 94 397 83 q 403 73 413 73 q 428 73 445 94 q 462 115 471 115 q 475 115 478 112 q 480 108 480 102 q 480 77 437 34 q 394 -9 358 -9 q 330 -9 314 17 q 299 43 299 91 l 299 99 l 293 98 q 259 45 219 19 q 180 -8 136 -8 q 80 -8 46 33 q 12 74 12 142 q 12 196 33 249 q 55 303 94 348 q 133 393 175 414 q 216 435 267 435 q 295 435 325 421 q 354 407 356 407 q 370 407 396 440 q 422 472 433 472 q 438 472 442 468 q 446 464 446 459 q 446 456 440 433 q 416 339 405 248 z"},"L":{"x_min":0,"x_max":602,"ha":602,"o":"m 91 155 l 134 548 q 134 549 134 551 q 136 570 136 579 q 136 611 125 629 q 114 647 90 655 q 87 656 82 657 q 76 659 73 660 l 73 660 q 41 667 41 683 q 41 692 48 697 q 55 701 68 701 q 73 701 116 698 q 159 694 196 694 q 230 694 270 698 q 311 701 317 701 q 328 701 332 697 q 337 693 337 685 q 337 677 332 672 q 327 667 312 661 q 310 660 302 656 q 294 652 290 649 q 273 637 264 613 q 255 590 250 540 l 206 139 q 205 132 205 124 q 204 117 204 105 q 204 73 221 60 q 238 47 287 47 q 365 47 415 63 q 465 79 510 117 q 527 132 547 158 q 567 185 579 185 q 585 185 589 179 q 593 173 593 163 q 593 141 581 104 q 568 68 550 42 q 532 16 509 6 q 487 -4 439 -4 q 420 -4 375 -2 q 367 -2 363 -2 q 320 -1 286 0 q 252 0 220 0 q 167 0 119 -1 q 72 -2 39 -5 q 35 -5 31 -6 q 27 -6 23 -6 q 13 -6 8 -2 q 3 1 3 10 q 3 24 26 33 l 27 33 q 29 34 34 36 q 45 42 50 45 q 67 58 76 81 q 85 105 91 155 z"},"3":{"x_min":0,"x_max":541,"ha":541,"o":"m 325 401 q 391 382 426 339 q 461 297 461 238 q 461 134 380 60 q 298 -13 176 -13 q 96 -13 37 20 q -22 52 -22 84 q -22 92 -17 97 q -11 102 -3 102 q 1 102 17 89 q 86 33 158 33 q 239 33 293 86 q 347 140 347 217 q 347 274 313 304 q 279 335 215 335 q 208 335 198 334 q 188 333 184 333 q 173 333 168 337 q 162 341 162 348 q 162 361 198 375 q 223 384 237 391 q 287 417 312 451 q 337 486 337 529 q 337 573 310 600 q 284 627 241 627 q 216 627 190 616 q 165 605 137 583 q 129 576 116 563 q 98 544 87 544 q 82 544 80 548 q 77 552 77 560 q 77 594 146 640 q 214 686 290 686 q 358 686 402 649 q 445 613 445 557 q 445 515 416 477 q 386 438 325 401 z"},";":{"x_min":0,"x_max":282,"ha":282,"o":"m 174 427 l 230 364 q 232 361 234 358 q 235 354 235 348 q 235 344 233 340 q 231 336 227 332 l 160 268 q 157 265 153 264 q 149 262 145 262 q 131 262 98 297 q 64 332 64 347 q 64 353 69 361 q 75 369 91 385 q 119 414 133 425 q 147 435 157 435 q 161 435 166 433 q 171 431 174 427 z m 35 100 q 35 115 71 141 q 107 168 126 168 q 146 168 170 134 q 194 101 194 63 q 194 27 170 -12 q 147 -51 101 -91 q 79 -110 59 -121 q 39 -131 24 -131 q 20 -131 16 -127 q 13 -123 13 -116 q 13 -110 49 -70 q 84 -30 84 3 q 84 30 60 60 q 35 90 35 100 z"},"J":{"x_min":0,"x_max":431,"ha":431,"o":"m 180 145 l 225 548 q 225 549 225 550 q 227 570 227 579 q 227 611 216 629 q 205 647 180 655 q 177 656 172 657 q 166 659 163 660 l 163 660 q 131 667 131 683 q 131 692 138 697 q 145 701 158 701 q 163 701 206 698 q 249 694 286 694 q 320 694 360 698 q 400 701 407 701 q 417 701 423 697 q 428 693 428 685 q 428 677 423 672 q 418 667 403 661 q 400 660 396 658 q 385 652 380 649 q 363 637 354 614 q 346 591 340 540 l 308 248 l 307 242 q 292 104 241 40 q 212 5 170 -17 q 128 -39 90 -39 q 45 -39 15 -16 q -15 7 -15 42 q -15 68 4 94 q 23 119 42 119 q 63 119 79 67 l 79 66 q 86 41 97 29 q 108 16 122 16 q 145 16 159 47 q 173 78 180 145 z"},"V":{"x_min":0,"x_max":694,"ha":694,"o":"m 344 23 l 342 20 q 321 -19 307 -19 q 297 -19 290 -10 q 284 -1 276 25 l 112 547 q 98 591 85 614 q 71 637 54 647 q 48 650 36 655 q 6 667 6 682 q 6 691 13 696 q 20 700 33 700 q 42 700 82 697 q 122 693 154 693 q 183 693 221 696 q 259 699 268 699 q 279 699 284 695 q 289 691 289 683 q 289 669 262 662 q 256 660 252 659 q 235 654 224 639 q 214 624 214 603 q 214 595 216 585 q 218 576 222 563 l 334 203 q 340 184 346 173 q 352 162 356 162 q 359 162 367 172 q 375 182 384 199 l 575 547 q 582 560 586 572 q 590 584 590 594 q 590 619 577 632 q 564 646 531 655 q 527 656 526 656 q 524 657 522 657 q 521 657 519 658 q 489 667 489 682 q 489 691 496 696 q 502 700 516 700 q 528 700 564 697 q 601 693 625 693 q 645 693 678 696 q 711 699 724 699 q 734 699 739 695 q 744 691 744 683 q 744 670 720 658 q 710 652 705 649 q 691 640 677 620 q 662 600 640 560 z"},"\"":{"x_min":0,"x_max":339,"ha":339,"o":"m 242 418 l 206 642 q 206 646 205 650 q 205 654 205 661 q 205 686 218 700 q 230 714 252 714 q 274 714 286 700 q 299 687 299 662 q 299 656 297 645 q 297 643 297 642 l 261 418 z m 78 418 l 42 642 q 42 646 41 650 q 41 654 41 661 q 41 687 53 700 q 65 714 87 714 q 110 714 122 700 q 134 687 134 661 q 134 653 134 649 q 133 645 133 642 l 97 418 z"},"7":{"x_min":0,"x_max":541,"ha":541,"o":"m 256 577 q 201 577 173 571 q 145 564 129 549 q 119 539 107 510 q 95 480 82 480 q 74 480 69 486 q 64 492 64 503 q 64 519 72 544 q 80 569 97 609 l 99 613 q 125 671 152 671 q 165 671 193 670 q 221 669 236 669 q 346 669 452 672 q 469 673 473 673 q 491 673 499 666 q 506 658 506 641 q 506 601 487 540 q 468 480 435 424 q 421 400 394 354 q 267 144 267 46 q 267 31 271 7 q 275 -16 275 -25 q 275 -41 251 -51 q 227 -62 191 -62 q 162 -62 149 -45 q 136 -28 136 10 q 136 76 167 141 q 197 206 305 335 q 382 427 414 480 q 447 534 447 565 q 447 572 439 574 q 431 577 408 577 z"},"S":{"x_min":0,"x_max":532,"ha":532,"o":"m 205 -19 q 143 -19 103 -10 q 62 -2 52 13 q 44 24 32 72 q 20 120 20 153 q 20 169 25 178 q 29 187 38 187 q 51 187 67 157 q 74 143 79 135 q 113 76 152 51 q 190 26 243 26 q 296 26 330 56 q 363 86 363 134 q 363 170 338 209 q 313 249 249 308 q 239 317 220 334 q 82 460 82 547 q 82 618 136 665 q 190 712 272 712 q 314 712 365 698 q 416 685 422 685 q 428 685 440 690 q 452 696 457 696 q 466 696 471 688 q 475 679 475 661 q 475 605 482 555 q 484 544 484 542 q 484 532 479 524 q 475 517 469 517 q 456 517 441 548 q 433 564 428 573 q 399 621 364 645 q 329 669 288 669 q 246 669 219 644 q 192 619 192 580 q 192 548 214 516 q 236 483 308 418 l 317 410 q 473 271 473 172 q 473 83 402 32 q 332 -19 205 -19 z"},"}":{"x_min":0,"x_max":500,"ha":500,"o":"m 281 571 l 281 473 q 281 394 309 364 q 336 334 414 327 l 414 294 q 337 288 309 258 q 281 228 281 148 l 281 50 q 281 -46 240 -83 q 199 -119 90 -119 l 85 -119 l 85 -91 q 148 -90 171 -65 q 194 -40 194 37 l 194 104 q 194 215 221 255 q 249 294 323 310 q 250 326 222 365 q 194 405 194 516 l 194 583 q 194 660 171 686 q 147 711 85 712 l 85 740 l 90 740 q 199 740 240 704 q 281 667 281 571 z"},"Z":{"x_min":0,"x_max":609,"ha":609,"o":"m 575 680 q 575 665 500 552 q 424 439 374 359 q 301 242 252 157 q 203 71 203 63 q 203 54 218 50 q 232 46 271 46 l 321 46 q 363 46 410 67 q 457 88 494 124 q 506 135 523 159 q 540 182 552 182 q 558 182 562 176 q 566 169 566 160 q 566 140 556 108 q 545 75 529 48 q 511 19 490 7 q 470 -5 433 -5 q 421 -5 366 -2 q 312 0 269 0 q 181 0 83 -6 q 61 -7 55 -7 q 42 -7 34 -3 q 27 1 27 8 q 27 26 113 153 q 173 244 212 303 q 301 440 350 527 q 400 614 400 633 q 400 642 386 645 q 373 648 316 648 q 232 648 195 635 q 159 622 138 589 q 130 577 120 554 q 107 524 95 524 q 90 524 85 530 q 81 537 81 546 q 81 551 87 587 q 93 622 102 663 q 106 683 116 691 q 125 699 146 699 q 151 699 173 697 q 250 692 319 692 q 421 692 521 701 q 537 702 540 702 q 559 702 567 697 q 575 692 575 680 z"},"x":{"x_min":0,"x_max":442,"ha":442,"o":"m 197 158 q 138 67 99 28 q 59 -11 27 -11 q 5 -11 -7 2 q -20 15 -20 37 q -20 61 -6 77 q 8 93 29 93 q 35 93 50 89 q 64 86 74 86 q 96 86 119 109 q 142 132 181 197 l 152 280 q 142 306 129 320 q 116 333 99 333 q 74 333 62 307 q 49 281 41 281 q 34 281 30 286 q 25 291 25 299 q 25 343 61 388 q 96 432 134 432 q 169 432 196 401 q 223 369 247 300 q 294 368 329 399 q 365 429 396 429 q 417 429 431 416 q 446 402 446 383 q 446 364 432 351 q 417 338 398 338 q 392 338 376 343 q 361 347 352 347 q 334 347 316 332 q 298 317 261 263 l 324 90 q 335 59 352 44 q 368 30 391 30 l 398 30 q 400 30 403 31 q 407 31 414 31 q 424 31 429 27 q 434 24 434 17 q 434 4 409 -3 q 385 -10 339 -10 q 288 -10 267 6 q 245 21 228 70 z"},")":{"x_min":0,"x_max":382,"ha":382,"o":"m 106 703 q 106 709 110 714 q 115 719 121 719 q 132 719 148 703 q 163 687 188 648 q 238 571 264 491 q 289 410 289 327 q 289 228 255 138 q 222 47 151 -44 q 110 -96 74 -130 q 38 -164 24 -164 q 18 -164 14 -161 q 10 -157 10 -152 q 10 -144 39 -109 q 68 -75 88 -43 q 136 32 163 139 q 191 247 191 358 q 191 438 181 501 q 171 564 150 617 q 139 646 122 673 q 106 700 106 703 z"},"&":{"x_min":0,"x_max":810,"ha":810,"o":"m 260 437 q 268 411 285 397 q 301 384 325 384 q 336 384 345 393 q 353 402 353 415 q 353 430 341 441 q 329 451 311 451 q 301 451 288 448 q 276 444 260 437 z m 212 460 q 210 474 210 485 q 209 496 209 504 q 209 591 269 652 q 330 713 416 713 q 470 713 503 690 q 536 668 536 632 q 536 601 510 578 q 484 555 450 555 q 441 555 436 559 q 430 563 430 569 q 430 573 435 586 q 439 599 439 607 q 439 627 424 640 q 409 653 386 653 q 335 653 293 608 q 250 563 250 506 q 250 500 251 493 q 251 486 253 478 q 270 484 288 488 q 306 491 324 491 q 365 491 390 469 q 416 446 416 412 q 416 381 392 361 q 369 341 332 341 q 296 341 268 360 q 241 379 226 415 q 194 396 177 356 q 159 316 159 264 q 159 164 221 99 q 283 35 380 35 q 467 35 531 90 q 596 145 596 215 q 596 253 572 280 q 547 307 513 307 q 486 307 466 287 q 446 268 446 240 q 446 223 457 211 q 467 200 483 200 q 494 200 505 208 q 517 216 518 216 q 524 216 528 212 q 531 208 531 201 q 531 187 512 173 q 493 160 469 160 q 435 160 413 184 q 391 208 391 246 q 391 302 440 352 q 489 401 595 452 l 609 459 q 771 536 771 607 q 771 636 753 656 q 736 675 710 675 q 690 675 677 664 q 663 654 663 639 q 663 627 684 617 q 704 606 704 592 q 704 571 689 557 q 674 543 653 543 q 627 543 610 562 q 593 582 593 612 q 593 653 625 681 q 658 709 708 709 q 759 709 792 673 q 826 637 826 584 q 826 527 772 473 q 718 419 610 366 q 639 353 656 323 q 672 294 672 255 q 672 205 646 156 q 620 106 573 67 q 524 26 460 3 q 396 -19 325 -19 q 199 -19 122 45 q 45 110 45 215 q 45 292 89 356 q 133 420 212 460 z"},"_":{"x_min":0,"x_max":500,"ha":500,"o":"m 500 -152 l 500 -236 l 0 -236 l 0 -152 z"},"v":{"x_min":0,"x_max":498,"ha":498,"o":"m 121 171 q 123 207 129 255 q 135 303 135 316 q 135 330 131 336 q 127 342 118 342 q 95 342 76 310 q 56 278 56 238 q 56 205 71 190 q 85 175 121 171 z m 121 137 q 68 144 42 172 q 15 200 15 250 q 15 320 62 375 q 109 430 165 430 q 202 430 220 407 q 238 384 238 337 q 238 311 230 248 q 222 186 222 150 q 222 103 234 80 q 245 57 269 57 q 288 57 311 76 q 334 94 358 129 q 381 163 395 203 q 408 243 408 275 q 408 310 390 342 q 372 375 372 383 q 372 399 391 414 q 410 428 432 428 q 449 428 456 414 q 463 399 463 365 q 463 302 447 245 q 431 187 397 131 q 356 63 306 23 q 255 -16 209 -16 q 161 -16 141 18 q 121 53 121 137 z"},"O":{"x_min":0,"x_max":799,"ha":799,"o":"m 428 667 q 307 667 231 568 q 155 468 155 310 q 155 176 214 101 q 272 26 376 26 q 498 26 572 124 q 646 222 646 381 q 646 515 588 591 q 530 667 428 667 z m 374 -19 q 215 -19 121 70 q 27 160 27 310 q 27 388 56 459 q 85 531 140 589 q 198 650 273 681 q 348 712 435 712 q 586 712 680 623 q 774 534 774 391 q 774 315 748 245 q 722 175 673 119 q 615 53 537 17 q 459 -19 374 -19 z"},"(":{"x_min":0,"x_max":382,"ha":382,"o":"m 266 -149 q 266 -155 262 -160 q 257 -165 252 -165 q 240 -165 225 -149 q 209 -133 183 -94 q 133 -19 108 62 q 82 144 82 228 q 82 326 116 416 q 149 506 221 598 q 263 651 299 684 q 334 718 348 718 q 354 718 357 715 q 361 711 361 706 q 361 698 332 663 q 303 628 283 597 q 235 521 208 413 q 181 305 181 184 q 181 113 191 51 q 202 -10 222 -62 q 233 -92 250 -119 q 266 -146 266 -149 z"},"C":{"x_min":0,"x_max":701,"ha":701,"o":"m 30 328 q 30 394 48 453 q 67 513 103 565 q 152 636 223 674 q 294 711 379 711 q 449 711 524 685 q 599 659 602 659 q 613 659 626 665 q 638 671 639 671 q 649 671 654 665 q 659 660 659 647 q 659 645 658 637 q 655 605 655 578 q 655 543 657 505 q 660 466 660 462 q 660 453 657 448 q 653 443 647 443 q 637 443 620 481 q 611 501 606 512 q 568 588 510 628 q 453 668 383 668 q 278 668 217 585 q 155 502 155 361 q 155 224 218 142 q 281 60 386 60 q 439 60 490 84 q 541 108 581 153 q 588 161 598 174 q 614 196 626 196 q 631 196 634 191 q 637 187 637 179 q 637 167 623 143 q 608 119 585 93 q 536 39 474 10 q 412 -19 345 -19 q 210 -19 120 79 q 30 178 30 328 z"},"W":{"x_min":0,"x_max":995,"ha":995,"o":"m 869 547 q 876 562 880 574 q 884 585 884 594 q 884 619 871 633 q 858 646 826 655 q 823 656 817 657 q 784 666 784 682 q 784 691 791 696 q 797 700 811 700 q 823 700 859 697 q 895 693 919 693 q 939 693 973 696 q 1006 699 1019 699 q 1029 699 1034 695 q 1039 691 1039 683 q 1039 670 1015 657 q 1005 652 1000 649 q 986 640 968 616 q 950 592 934 560 l 664 23 q 663 21 662 18 q 643 -19 630 -19 q 622 -19 615 -9 q 609 0 603 25 l 524 335 q 521 350 514 362 q 508 374 506 374 q 503 374 496 364 q 489 354 481 339 l 320 23 q 307 -3 300 -11 q 293 -19 285 -19 q 276 -19 269 -8 q 262 2 257 25 l 126 547 q 117 583 102 610 q 87 636 69 647 q 63 650 51 655 q 21 667 21 682 q 21 691 28 696 q 35 700 48 700 q 57 700 97 697 q 137 693 169 693 q 198 693 236 696 q 274 699 283 699 q 293 699 298 695 q 303 691 303 683 q 303 669 276 662 q 270 660 266 659 q 249 654 239 639 q 229 624 229 603 q 229 594 234 573 q 236 566 237 563 l 322 232 q 326 215 333 203 q 340 191 344 191 q 347 191 356 202 q 364 213 372 228 l 480 442 q 486 453 489 459 q 491 466 491 470 q 491 471 490 476 q 489 480 486 493 l 472 547 q 461 586 447 611 q 433 636 414 647 q 409 650 396 655 q 366 667 366 682 q 366 691 373 696 q 379 700 393 700 q 402 700 442 697 q 482 693 514 693 q 543 693 581 696 q 619 699 628 699 q 638 699 643 695 q 648 691 648 683 q 648 669 621 662 q 616 660 612 659 q 594 653 584 638 q 574 624 574 603 q 574 592 581 569 q 582 565 582 563 l 666 237 q 671 218 677 207 q 684 195 688 195 q 692 195 700 206 q 708 216 716 232 z"},"A":{"x_min":0,"x_max":713,"ha":713,"o":"m 248 301 l 408 301 q 417 301 420 304 q 424 308 424 316 q 424 320 423 323 q 423 326 422 329 l 368 490 q 362 509 356 520 q 350 531 346 531 q 341 531 335 522 q 328 514 317 494 l 231 333 q 228 327 227 323 q 225 318 225 316 q 225 309 231 305 q 237 301 248 301 z m 599 147 q 617 94 628 75 q 640 56 656 47 q 663 43 670 40 q 678 37 688 35 q 707 30 712 25 q 717 20 717 11 q 717 2 710 -2 q 704 -7 690 -7 q 680 -7 642 -3 q 604 0 575 0 q 541 0 501 -3 q 460 -6 454 -6 q 443 -6 439 -2 q 434 1 434 10 q 434 18 439 23 q 444 29 462 36 q 478 42 487 56 q 496 70 496 90 q 496 98 494 106 q 493 115 488 130 l 461 212 l 461 212 q 449 247 419 247 l 216 247 q 198 247 189 242 q 181 236 172 220 l 136 147 q 130 133 126 120 q 123 107 123 96 q 123 72 136 58 q 148 45 180 37 q 181 37 183 36 q 185 36 186 35 q 209 30 215 25 q 221 20 221 11 q 221 2 214 -2 q 207 -7 194 -7 q 182 -7 146 -3 q 111 0 86 0 q 66 0 32 -3 q -1 -6 -14 -6 q -24 -6 -29 -2 q -34 1 -34 10 q -34 24 -10 35 l -10 35 q -7 36 -4 38 q -1 39 5 43 q 19 53 36 75 q 52 98 71 133 l 357 670 q 358 672 360 676 q 379 712 394 712 q 403 712 409 704 q 415 696 425 668 z"},"f":{"x_min":0,"x_max":292,"ha":292,"o":"m 163 77 q 147 -68 116 -133 q 86 -198 35 -198 q 9 -198 -12 -177 q -33 -155 -33 -133 q -33 -124 -10 -117 q 13 -110 22 -101 q 47 -77 62 56 l 62 62 l 94 357 l 94 362 q 94 370 91 372 q 89 375 83 375 l 18 375 q 11 375 9 377 q 6 379 6 384 l 6 387 l 10 415 q 10 417 14 419 q 19 421 25 421 l 87 421 q 104 421 110 464 q 118 520 131 566 q 152 640 197 689 q 242 739 285 739 q 307 739 319 728 q 331 717 331 696 q 331 669 319 646 q 307 623 293 623 q 286 623 267 635 q 249 647 241 647 q 221 647 212 598 q 203 549 203 441 q 203 427 206 424 q 209 421 220 421 l 300 421 q 307 421 310 419 q 313 417 313 412 l 313 410 l 311 386 q 310 381 305 378 q 301 375 293 375 l 213 375 q 204 375 200 371 q 196 368 195 359 z"},"Q":{"x_min":0,"x_max":799,"ha":799,"o":"m 426 -15 q 441 -23 468 -38 q 611 -116 653 -116 q 690 -116 718 -83 q 747 -49 752 -49 q 758 -49 760 -53 q 763 -57 763 -65 q 763 -75 755 -91 q 748 -107 734 -125 q 706 -161 677 -177 q 648 -193 612 -193 q 576 -193 529 -176 q 482 -158 418 -121 q 403 -112 375 -96 q 246 -19 201 -19 q 170 -19 154 -33 q 137 -47 137 -73 q 137 -95 151 -115 q 165 -136 165 -142 q 165 -148 161 -151 q 158 -154 151 -154 q 127 -154 105 -121 q 82 -88 82 -48 q 82 -13 100 13 q 118 39 148 47 q 88 94 58 161 q 27 227 27 308 q 27 387 56 459 q 85 531 140 589 q 198 650 273 681 q 348 712 435 712 q 586 712 680 623 q 774 534 774 391 q 774 235 677 122 q 580 9 426 -15 z m 428 667 q 307 667 231 568 q 155 468 155 310 q 155 177 214 101 q 273 26 377 26 q 498 26 572 124 q 646 221 646 381 q 646 515 588 591 q 530 667 428 667 z"},"w":{"x_min":0,"x_max":757,"ha":757,"o":"m 121 137 q 68 144 42 172 q 15 200 15 250 q 15 320 62 375 q 109 430 165 430 q 201 430 219 408 q 238 386 238 342 q 238 308 230 246 q 222 184 222 156 q 222 113 232 93 q 241 73 262 73 q 293 73 329 125 q 365 177 386 259 q 396 296 402 344 q 408 393 411 403 q 416 418 424 423 q 432 428 464 428 q 492 428 501 423 q 510 417 510 402 q 510 393 499 330 q 489 268 489 216 q 489 154 507 115 q 525 76 552 76 q 586 76 627 144 q 667 211 667 275 q 667 310 649 342 q 631 375 631 383 q 631 399 650 414 q 668 428 690 428 q 705 428 714 413 q 723 398 723 373 q 723 310 707 249 q 690 188 658 135 q 618 68 574 30 q 531 -8 494 -8 q 453 -8 426 39 q 399 85 392 170 q 355 92 299 41 q 243 -11 202 -11 q 164 -11 142 24 q 121 60 121 125 z m 121 171 q 123 207 129 255 q 135 303 135 316 q 135 330 131 336 q 127 342 118 342 q 95 342 76 310 q 56 278 56 238 q 56 205 71 190 q 85 175 121 171 z"},"-":{"x_min":0,"x_max":329,"ha":329,"o":"m 46 203 q 46 218 50 223 q 54 229 65 233 l 247 298 q 251 299 252 300 q 254 300 255 300 q 260 300 263 296 q 265 292 265 283 l 265 238 q 265 221 261 216 q 257 210 247 207 l 65 142 q 61 141 60 140 q 58 140 57 140 q 52 140 49 145 q 46 149 46 158 z"},"E":{"x_min":0,"x_max":625,"ha":625,"o":"m 91 155 l 134 548 q 134 549 134 551 q 136 570 136 579 q 136 611 125 629 q 114 647 90 655 q 87 656 82 657 q 76 659 73 660 l 73 660 q 41 667 41 683 q 41 692 48 697 q 55 701 68 701 q 70 701 83 700 q 163 694 249 694 q 299 694 406 697 q 514 699 571 699 q 602 699 608 680 q 614 661 614 584 q 614 554 609 543 q 605 533 593 533 q 575 533 569 564 q 563 596 557 606 q 543 628 490 639 q 438 650 347 650 q 284 650 271 635 q 258 620 250 544 l 235 402 l 235 399 q 235 393 238 389 q 241 386 246 386 l 374 386 q 405 386 421 394 q 437 402 451 421 q 456 428 464 441 q 479 467 492 467 q 498 467 502 461 q 506 455 506 446 q 506 442 500 396 q 494 351 494 311 q 494 302 495 289 q 495 277 495 274 q 495 256 490 246 q 485 236 476 236 q 461 236 451 267 q 441 298 434 309 q 424 324 405 332 q 386 339 354 339 l 243 339 q 236 339 231 335 q 227 331 226 323 l 206 139 q 205 131 205 124 q 204 116 204 105 q 204 73 222 60 q 239 47 287 47 q 365 47 415 63 q 465 79 510 117 q 527 132 547 158 q 567 185 579 185 q 585 185 589 179 q 593 173 593 163 q 593 141 581 104 q 568 68 550 42 q 532 16 509 6 q 487 -4 439 -4 q 420 -4 375 -2 q 367 -2 363 -2 q 320 -1 286 0 q 252 0 220 0 q 167 0 119 -1 q 72 -2 39 -5 q 35 -5 31 -6 q 27 -6 23 -6 q 13 -6 8 -2 q 3 1 3 10 q 3 24 26 33 l 27 33 q 29 34 34 36 q 45 42 50 45 q 67 58 76 81 q 85 105 91 155 z"},"s":{"x_min":0,"x_max":356,"ha":356,"o":"m 143 -16 q 83 -16 42 11 q 1 38 1 75 q 1 94 14 107 q 28 120 48 120 q 61 120 72 115 q 83 110 91 101 q 102 87 107 64 q 112 40 113 40 q 113 40 115 38 q 128 17 155 17 q 185 17 202 35 q 219 53 219 84 q 219 104 208 123 q 198 142 175 162 q 162 173 138 193 q 58 257 58 311 q 58 363 102 399 q 146 435 211 435 q 262 435 297 413 q 333 391 333 362 q 333 345 321 332 q 309 320 292 320 q 276 320 262 330 q 248 340 240 357 q 227 385 217 392 q 208 400 193 400 q 169 400 154 387 q 139 374 139 352 q 139 333 152 316 q 165 299 211 264 q 270 220 291 188 q 311 157 311 119 q 311 60 264 22 q 217 -16 143 -16 z"},">":{"x_min":0,"x_max":833,"ha":833,"o":"m 704 337 l 704 259 l 129 23 l 129 112 l 585 298 l 129 484 l 129 574 z"},"l":{"x_min":0,"x_max":255,"ha":255,"o":"m 148 170 q 146 154 145 140 q 144 125 144 115 q 144 97 150 86 q 156 76 166 76 q 181 76 198 98 q 216 119 224 119 q 229 119 231 115 q 234 111 234 104 q 234 78 188 36 q 142 -6 99 -6 q 71 -6 55 14 q 39 34 39 68 q 39 86 41 107 q 42 129 47 172 l 97 622 q 97 624 98 629 q 98 634 98 637 q 98 659 91 668 q 83 678 67 678 q 65 678 58 677 q 50 677 46 677 q 38 677 32 681 q 27 685 27 691 q 27 709 81 716 q 88 717 93 718 q 124 723 155 731 q 186 739 188 739 q 198 739 203 733 q 208 728 208 716 q 208 712 207 704 q 207 696 205 683 z"},"8":{"x_min":0,"x_max":541,"ha":541,"o":"m 182 334 q 158 334 130 287 q 101 240 101 181 q 101 107 145 62 q 188 17 258 17 q 322 17 368 58 q 414 100 414 156 q 414 198 384 231 q 354 264 293 290 q 275 297 247 310 q 189 334 182 334 z m 305 653 q 247 653 208 618 q 170 583 170 532 q 170 504 183 482 q 195 459 221 442 q 252 421 282 407 q 312 394 325 394 q 363 394 398 438 q 434 482 434 541 q 434 590 398 622 q 363 653 305 653 z m 153 355 q 115 386 98 420 q 80 453 80 492 q 80 573 146 628 q 212 684 312 684 q 409 684 467 644 q 525 604 525 538 q 525 486 488 447 q 451 407 371 375 q 439 346 473 303 q 506 259 506 199 q 506 109 432 48 q 358 -13 246 -13 q 133 -13 68 36 q 3 85 3 170 q 3 233 40 279 q 77 324 153 355 z"},"\\":{"x_min":0,"x_max":278,"ha":278,"o":"m 261 -54 l -19 665 q -24 678 -27 687 q -30 696 -30 700 q -30 709 -27 711 q -24 714 -16 714 q 12 714 22 706 q 32 699 41 675 l 322 -44 q 323 -47 326 -54 q 333 -72 333 -79 q 333 -86 329 -90 q 325 -93 315 -93 q 291 -93 281 -86 q 271 -79 261 -54 z"},"e":{"x_min":0,"x_max":410,"ha":410,"o":"m 227 392 q 181 392 146 343 q 111 294 111 237 q 111 230 114 228 q 118 226 130 226 q 187 226 231 262 q 275 299 275 343 q 275 366 262 379 q 250 392 227 392 z m 15 159 q 15 268 94 351 q 173 435 273 435 q 320 435 349 413 q 377 390 377 354 q 377 306 330 266 q 282 226 199 205 q 176 199 144 195 q 111 190 111 182 q 111 125 144 87 q 178 49 230 49 q 272 49 312 76 q 351 103 354 103 q 361 103 364 100 q 367 97 367 90 q 367 61 305 22 q 242 -16 172 -16 q 102 -16 58 32 q 15 80 15 159 z"},"b":{"x_min":0,"x_max":462,"ha":462,"o":"m 134 226 l 121 111 q 121 110 121 108 q 119 91 119 84 q 119 52 135 35 q 150 19 181 19 q 243 19 287 84 q 330 150 330 245 q 330 300 309 330 q 287 361 249 361 q 205 361 173 324 q 141 287 134 226 z m 27 180 l 78 622 q 78 624 79 629 q 79 634 79 637 q 79 658 71 668 q 63 678 47 678 q 45 678 38 677 q 31 677 27 677 q 19 677 13 681 q 7 685 7 691 q 7 709 62 716 q 69 717 74 718 q 104 722 135 730 q 166 739 169 739 q 179 739 184 733 q 189 728 189 716 q 189 713 188 705 q 188 697 186 683 l 146 335 q 177 383 217 409 q 258 435 302 435 q 360 435 396 392 q 431 349 431 277 q 431 156 353 70 q 275 -16 160 -16 q 93 -16 57 18 q 22 52 22 117 q 22 124 23 137 q 24 150 27 180 z"},"%":{"x_min":0,"x_max":778,"ha":778,"o":"m 577 21 q 619 21 642 71 q 665 121 665 213 q 665 290 644 331 q 624 373 586 373 q 545 373 521 323 q 497 272 497 185 q 497 104 517 62 q 537 21 577 21 z m 556 -14 q 493 -14 454 32 q 416 78 416 155 q 416 256 473 330 q 531 404 609 404 q 671 404 708 359 q 746 313 746 238 q 746 137 688 61 q 630 -14 556 -14 z m 557 647 q 559 649 561 653 q 581 685 612 685 q 620 685 622 682 q 625 680 625 672 q 625 668 621 660 q 617 652 607 637 l 216 25 l 215 23 q 191 -13 161 -13 q 154 -13 151 -10 q 149 -8 149 0 q 149 4 154 14 q 158 23 166 35 z m 189 302 q 231 302 254 352 q 277 402 277 494 q 277 570 256 612 q 235 654 198 654 q 157 654 133 604 q 109 554 109 467 q 109 385 129 344 q 149 302 189 302 z m 358 519 q 358 417 300 342 q 242 267 165 267 q 104 267 66 313 q 28 360 28 436 q 28 537 86 611 q 144 685 222 685 q 284 685 321 640 q 358 595 358 519 z"},"m":{"x_min":0,"x_max":765,"ha":765,"o":"m 333 266 q 334 274 335 282 q 336 290 336 297 q 336 333 320 354 q 304 375 276 375 q 240 375 219 337 q 198 300 178 187 l 155 54 q 148 15 142 7 q 136 -2 122 -2 l 71 -2 q 61 -2 55 4 q 49 9 49 20 q 49 23 50 34 q 52 44 54 58 l 82 212 q 85 232 87 253 q 89 273 89 292 q 89 312 82 323 q 76 335 64 335 q 48 335 31 312 q 14 290 8 290 q 3 290 0 294 q -3 298 -3 303 q -3 337 38 385 q 79 434 111 434 q 141 434 154 408 q 167 382 167 325 l 172 322 q 201 374 245 405 q 289 436 333 436 q 373 436 394 414 q 415 393 415 351 l 415 340 l 423 338 q 463 390 501 413 q 540 436 584 436 q 631 436 656 405 q 681 375 681 317 q 681 312 679 294 q 678 276 675 251 l 666 170 q 666 166 665 159 q 661 122 661 115 q 661 97 667 87 q 674 76 684 76 q 699 76 716 98 q 733 119 742 119 q 747 119 749 115 q 752 111 752 104 q 752 78 706 36 q 660 -6 617 -6 q 590 -6 574 14 q 557 35 557 68 q 557 95 566 170 l 566 172 l 577 266 q 577 267 577 269 q 579 288 579 296 q 579 334 564 355 q 549 375 521 375 q 485 375 463 336 q 441 298 422 187 l 399 54 q 392 15 386 7 q 380 -2 366 -2 l 315 -2 q 305 -2 299 4 q 293 10 293 19 q 293 20 294 29 q 296 39 299 58 z"},"#":{"x_min":0,"x_max":769,"ha":769,"o":"m 477 419 l 343 419 l 297 290 l 431 290 z m 449 713 l 373 500 l 504 500 l 580 713 l 669 713 l 593 500 l 735 500 l 706 419 l 564 419 l 519 291 l 669 291 l 640 209 l 490 209 l 415 -3 l 325 -3 l 401 209 l 270 209 l 195 -3 l 105 -3 l 181 209 l 34 209 l 63 291 l 210 291 l 255 419 l 99 419 l 129 500 l 284 500 l 360 713 z"},",":{"x_min":0,"x_max":271,"ha":271,"o":"m 35 100 q 35 115 71 141 q 107 168 126 168 q 146 168 170 134 q 194 101 194 63 q 194 27 170 -12 q 147 -51 101 -91 q 79 -110 59 -121 q 39 -131 24 -131 q 20 -131 16 -127 q 13 -123 13 -116 q 13 -110 49 -70 q 84 -30 84 3 q 84 30 60 60 q 35 90 35 100 z"},"n":{"x_min":0,"x_max":521,"ha":521,"o":"m 54 58 l 82 212 q 85 232 87 253 q 89 273 89 292 q 89 312 82 323 q 76 335 64 335 q 48 335 31 312 q 14 290 8 290 q 3 290 0 294 q -3 298 -3 303 q -3 337 38 385 q 79 434 111 434 q 141 434 154 408 q 167 382 167 325 l 172 322 q 205 378 247 407 q 290 436 340 436 q 387 436 411 405 q 436 375 436 317 q 436 304 435 287 q 434 270 431 251 l 420 170 q 418 156 417 142 q 416 128 416 115 q 416 97 422 87 q 429 76 439 76 q 454 76 471 98 q 488 119 496 119 q 500 119 504 115 q 507 110 507 104 q 507 78 461 36 q 415 -6 372 -6 q 345 -6 329 14 q 312 35 312 68 q 312 89 314 115 q 316 142 320 172 l 333 266 q 334 279 335 284 q 335 290 335 295 q 335 333 320 354 q 304 375 276 375 q 240 375 219 337 q 198 300 178 187 l 155 54 q 148 15 142 7 q 136 -2 122 -2 l 71 -2 q 61 -2 55 4 q 49 9 49 20 q 49 23 50 34 q 52 44 54 58 z"},"h":{"x_min":0,"x_max":493,"ha":493,"o":"m 394 170 q 392 154 391 140 q 390 125 390 115 q 390 97 396 86 q 402 76 412 76 q 427 76 444 98 q 461 119 470 119 q 475 119 478 115 q 481 110 481 104 q 481 78 434 36 q 388 -6 345 -6 q 318 -6 302 14 q 285 35 285 68 q 285 86 287 112 q 290 137 294 172 l 306 266 q 306 267 306 269 q 308 288 308 296 q 308 334 293 354 q 278 375 250 375 q 213 375 189 329 q 165 284 152 187 l 134 54 q 129 18 123 8 q 116 -2 101 -2 l 50 -2 q 39 -2 35 3 q 31 8 31 24 q 31 33 31 41 q 32 49 33 58 l 97 622 q 97 624 98 629 q 98 634 98 637 q 98 659 91 668 q 83 678 67 678 q 65 678 58 677 q 50 677 46 677 q 38 677 32 681 q 27 685 27 691 q 27 709 81 716 q 88 717 93 718 q 124 723 155 731 q 186 739 188 739 q 198 739 203 733 q 208 728 208 716 q 208 712 207 704 q 207 696 205 683 l 169 354 q 199 396 235 416 q 270 436 312 436 q 358 436 384 405 q 410 374 410 317 q 410 310 405 270 q 404 258 403 251 z"},"z":{"x_min":0,"x_max":391,"ha":391,"o":"m 17 33 l 246 294 q 208 300 159 323 q 111 345 99 345 q 86 345 78 338 q 70 330 70 319 q 70 307 82 293 q 94 279 94 272 q 94 267 90 264 q 85 261 78 261 q 61 261 47 282 q 32 303 32 330 q 32 375 60 403 q 87 431 130 431 q 167 431 229 406 q 290 381 318 381 q 340 381 353 406 q 366 432 377 432 q 385 432 390 426 q 396 420 396 411 q 396 402 390 391 q 385 379 375 369 l 146 114 q 176 103 201 78 q 226 53 250 10 q 254 2 262 -12 q 290 -66 310 -66 q 318 -66 322 -61 q 326 -55 326 -45 q 326 -44 326 -38 q 325 -32 325 -27 q 325 -15 335 -6 q 344 3 357 3 q 372 3 380 -7 q 389 -16 389 -32 q 389 -60 364 -80 q 339 -100 302 -100 q 271 -100 239 -85 q 207 -70 166 -36 q 153 -25 133 -6 q 97 28 79 28 q 66 28 49 10 q 31 -8 18 -8 q 11 -8 7 -4 q 2 -1 2 4 q 2 15 13 28 q 16 31 17 33 z"},"B":{"x_min":0,"x_max":678,"ha":678,"o":"m 206 145 q 205 130 204 120 q 203 110 203 104 q 203 65 223 51 q 244 37 299 37 q 391 37 444 79 q 497 120 497 191 q 497 266 441 306 q 385 346 280 346 q 250 346 238 336 q 227 326 222 283 z m 254 582 l 240 456 q 239 453 239 449 q 239 446 239 443 q 239 408 254 398 q 269 388 312 388 q 398 388 446 424 q 493 459 493 523 q 493 583 451 618 q 408 654 336 654 q 290 654 275 640 q 259 626 254 582 z m 91 155 l 134 548 q 134 549 134 551 q 136 570 136 579 q 136 611 125 629 q 114 647 90 655 q 87 656 82 657 q 76 659 73 660 l 73 660 q 41 667 41 683 q 41 692 48 697 q 55 701 68 701 q 70 701 116 698 q 163 694 209 694 q 238 694 296 696 q 354 698 383 698 q 493 698 555 655 q 616 612 616 536 q 616 486 580 444 q 544 402 483 382 q 555 349 589 306 q 622 263 622 204 q 622 105 547 49 q 471 -7 338 -7 q 318 -7 254 -3 q 190 0 145 0 q 124 0 102 -1 q 80 -2 56 -4 q 50 -4 39 -6 q 28 -7 23 -7 q 13 -7 8 -3 q 3 1 3 10 q 3 24 26 33 l 27 33 q 29 34 34 36 q 45 42 50 45 q 67 58 76 81 q 85 105 91 155 z"},"K":{"x_min":0,"x_max":743,"ha":743,"o":"m 206 147 q 206 146 206 143 q 204 125 204 119 q 204 83 215 65 q 225 47 250 39 q 253 38 259 37 q 265 35 268 34 l 269 34 q 300 27 300 11 q 300 2 293 -2 q 286 -7 273 -7 q 268 -7 226 -3 q 183 0 145 0 q 111 0 70 -3 q 29 -6 23 -6 q 13 -6 8 -2 q 3 1 3 10 q 3 24 26 33 l 27 33 q 29 34 34 36 q 45 42 50 45 q 67 58 76 81 q 85 105 91 155 l 134 548 q 134 549 134 551 q 136 570 136 579 q 136 611 125 629 q 114 647 90 655 q 87 656 82 657 q 76 659 73 660 l 73 660 q 41 667 41 683 q 41 692 48 697 q 55 701 68 701 q 73 701 116 698 q 159 694 196 694 q 230 694 270 698 q 311 701 317 701 q 328 701 332 697 q 337 693 337 685 q 337 677 332 672 q 327 667 312 661 q 310 660 302 656 q 294 652 290 649 q 273 637 265 614 q 256 591 250 540 l 229 360 l 495 590 q 511 604 518 615 q 525 625 525 633 q 525 647 491 660 l 490 660 q 473 666 467 670 q 461 674 461 680 q 461 690 469 695 q 478 700 493 700 q 497 700 511 699 q 562 694 609 694 q 661 694 714 699 q 724 700 726 700 q 738 700 743 697 q 748 693 748 685 q 748 675 740 669 q 731 662 709 655 q 622 629 559 574 q 551 568 548 565 l 400 441 q 393 435 389 430 q 386 425 386 418 q 386 415 387 411 q 388 408 391 403 l 577 134 q 600 101 628 77 q 656 53 685 42 q 689 41 698 38 q 707 36 711 34 l 711 34 q 743 27 743 12 q 743 3 739 0 q 734 -4 723 -4 q 722 -4 716 -3 q 681 0 645 0 q 604 0 563 -4 q 555 -5 553 -5 q 541 -5 531 2 q 521 9 506 31 l 294 351 l 222 293 z"},"R":{"x_min":0,"x_max":660,"ha":660,"o":"m 254 582 l 237 437 q 236 432 236 427 q 236 423 236 420 q 236 390 254 379 q 271 369 324 369 q 401 369 438 400 q 474 431 474 496 q 474 564 432 608 q 389 653 324 653 q 288 653 273 638 q 259 624 254 582 z m 91 155 l 134 548 q 134 549 134 551 q 136 570 136 579 q 136 611 125 629 q 114 647 90 655 q 87 656 82 657 q 76 659 73 660 l 73 660 q 41 667 41 683 q 41 692 48 697 q 55 701 68 701 q 73 701 92 699 q 159 694 216 694 q 244 694 293 695 q 342 697 362 697 q 467 697 532 644 q 598 590 598 509 q 598 448 558 403 q 518 358 440 333 q 501 185 534 125 q 567 65 591 53 q 598 49 614 46 q 618 45 620 45 q 635 44 641 40 q 646 37 646 29 q 646 12 620 0 q 594 -13 559 -13 q 505 -13 464 32 q 424 77 367 212 q 360 229 350 257 q 322 332 259 332 q 242 332 233 323 q 225 313 222 290 l 206 147 q 206 143 205 136 q 204 123 204 119 q 204 83 215 65 q 225 47 250 39 q 253 38 259 37 q 265 35 268 34 l 269 34 q 300 27 300 11 q 300 2 293 -2 q 286 -7 273 -7 q 268 -7 226 -3 q 183 1 145 1 q 111 1 70 -2 q 29 -6 23 -6 q 13 -6 8 -2 q 3 1 3 10 q 3 24 26 33 l 27 33 q 29 34 34 36 q 45 42 50 45 q 67 58 76 81 q 85 105 91 155 z"},"T":{"x_min":0,"x_max":671,"ha":671,"o":"m 372 147 q 372 143 371 136 q 370 123 370 119 q 370 83 381 65 q 391 47 416 39 q 419 38 425 37 q 431 35 434 34 l 435 34 q 465 27 465 11 q 465 2 458 -2 q 451 -7 438 -7 q 433 -7 391 -3 q 348 0 310 0 q 276 0 236 -3 q 195 -6 189 -6 q 179 -6 174 -2 q 169 1 169 10 q 169 24 192 33 l 193 33 q 195 34 200 36 q 211 42 216 45 q 233 57 242 80 q 250 103 256 155 l 306 597 q 306 598 307 603 q 307 607 307 611 q 307 627 294 634 q 280 641 246 641 q 178 641 145 631 q 113 621 96 597 q 82 576 66 540 q 51 503 37 503 q 31 503 27 509 q 22 514 22 521 q 22 523 23 528 q 24 533 27 546 l 53 645 l 54 647 q 67 699 106 699 q 108 699 124 698 q 216 693 313 693 q 477 693 623 698 q 642 699 645 699 q 665 699 672 688 q 679 678 680 650 l 682 566 l 682 559 q 682 541 678 533 q 674 526 665 526 q 649 526 638 567 q 637 571 636 573 q 628 602 611 617 q 595 632 570 634 l 483 639 l 477 639 q 454 639 439 627 q 425 615 422 593 z"},"P":{"x_min":0,"x_max":623,"ha":623,"o":"m 91 155 l 134 548 q 134 549 134 551 q 136 570 136 579 q 136 611 125 629 q 114 647 90 655 q 87 656 82 657 q 76 659 73 660 l 73 660 q 41 667 41 683 q 41 692 48 697 q 55 701 68 701 q 73 701 92 699 q 159 694 216 694 q 245 694 298 697 q 351 699 375 699 q 485 699 552 645 q 618 590 618 501 q 618 416 551 359 q 483 303 379 303 q 331 303 301 312 q 271 322 271 337 q 271 344 277 349 q 282 353 292 353 q 298 353 316 351 q 334 349 347 349 q 413 349 452 389 q 492 430 492 496 q 492 566 447 611 q 401 656 329 656 q 291 656 275 640 q 259 625 254 582 l 206 147 q 206 146 206 143 q 204 125 204 119 q 204 84 214 66 q 225 49 250 41 q 260 39 265 38 q 270 37 274 36 l 274 36 q 311 29 311 11 q 311 2 304 -2 q 297 -7 284 -7 q 282 -7 236 -3 q 189 0 145 0 q 111 0 70 -3 q 29 -6 23 -6 q 13 -6 8 -2 q 3 1 3 10 q 3 24 26 33 l 27 33 q 29 34 34 36 q 45 42 50 45 q 67 58 76 81 q 85 105 91 155 z"},"|":{"x_min":0,"x_max":500,"ha":500,"o":"m 294 764 l 294 -236 l 207 -236 l 207 764 z"},"t":{"x_min":0,"x_max":308,"ha":308,"o":"m 62 218 l 85 358 q 85 359 85 361 q 86 363 86 363 q 86 367 83 370 q 80 372 74 372 l 40 372 q 26 372 21 376 q 16 379 16 388 q 16 397 51 419 q 85 440 115 470 q 142 496 172 535 q 202 574 212 574 q 215 574 218 571 q 220 567 220 562 q 220 557 217 546 q 214 535 213 530 l 197 439 q 197 437 196 435 q 196 433 196 432 q 196 427 199 424 q 202 422 208 422 l 291 422 q 298 422 302 420 q 305 418 305 414 l 305 411 l 299 384 q 297 376 295 374 q 292 372 285 372 l 201 372 q 192 372 188 369 q 185 367 183 359 l 156 173 q 154 163 154 154 q 153 144 153 132 q 153 106 162 93 q 171 79 189 79 q 213 79 242 115 q 271 151 279 151 q 283 151 286 147 q 289 143 289 137 q 289 128 276 105 q 262 82 242 58 q 213 24 186 8 q 159 -9 132 -9 q 95 -9 73 20 q 52 48 52 98 q 52 127 54 157 q 57 188 62 218 z"},"M":{"x_min":0,"x_max":917,"ha":917,"o":"m 806 147 l 806 136 q 806 98 813 79 q 820 59 838 48 q 845 44 853 41 q 860 38 872 34 l 874 34 q 899 25 899 11 q 899 2 892 -2 q 886 -7 872 -7 q 867 -7 824 -3 q 781 0 744 0 q 710 0 670 -3 q 629 -6 623 -6 q 613 -6 608 -2 q 603 1 603 10 q 603 19 608 24 q 613 29 629 35 q 631 36 635 38 q 640 40 642 41 q 666 55 677 82 q 688 109 690 155 l 702 547 l 449 48 q 438 25 427 12 q 417 0 409 0 q 401 0 391 14 q 381 28 371 56 l 203 514 l 141 147 q 140 139 139 132 q 138 125 138 120 q 138 89 151 68 q 165 47 189 39 q 192 38 198 37 q 204 35 207 34 l 208 34 q 238 27 238 11 q 238 2 231 -2 q 225 -7 212 -7 q 200 -7 164 -3 q 127 0 103 0 q 84 0 52 -3 q 20 -6 6 -6 q -4 -6 -9 -2 q -14 1 -14 10 q -14 18 -9 24 q -4 29 11 35 q 18 38 20 39 q 23 40 25 41 q 47 54 60 79 q 73 104 83 155 l 136 439 q 143 475 146 505 q 150 536 150 548 q 150 591 126 622 q 102 652 67 652 q 65 652 55 651 q 45 651 38 651 q 29 651 23 655 q 17 660 17 666 q 17 682 38 690 q 59 698 99 698 q 111 698 134 697 q 156 696 167 696 q 174 696 190 696 q 206 697 214 697 q 230 697 243 682 q 255 667 268 635 l 427 208 q 433 192 439 182 q 446 173 450 173 q 454 173 461 182 q 469 192 477 208 l 707 662 q 717 682 729 689 q 742 697 765 697 q 772 697 790 695 q 808 694 818 694 q 835 694 859 696 q 884 698 891 698 q 907 698 916 694 q 925 689 925 681 q 925 664 895 660 q 894 660 893 660 q 890 660 884 659 q 878 659 875 658 q 844 650 830 620 q 817 590 815 519 z"},"g":{"x_min":0,"x_max":461,"ha":461,"o":"m 101 2 q 76 -11 63 -28 q 51 -46 51 -70 q 51 -112 91 -139 q 132 -167 194 -167 q 243 -167 273 -147 q 304 -127 304 -97 q 304 -55 207 -31 q 140 -14 101 2 z m 293 301 q 293 349 273 377 q 254 405 222 405 q 186 405 161 364 q 136 324 136 262 q 136 212 156 184 q 175 155 208 155 q 244 155 269 196 q 293 238 293 301 z m 107 147 q 72 173 56 203 q 40 233 40 271 q 40 343 89 389 q 138 435 215 435 q 242 435 292 425 q 342 415 365 415 q 394 415 423 427 q 452 440 458 440 q 466 440 471 430 q 477 420 477 406 q 477 384 466 369 q 455 355 438 355 q 422 355 399 369 q 377 384 368 384 q 363 384 362 383 q 360 382 360 379 q 360 376 365 367 q 386 326 386 282 q 386 215 333 170 q 280 125 199 125 q 180 125 164 128 q 147 130 133 136 q 126 126 124 120 q 121 114 121 109 q 121 95 138 85 q 156 76 221 63 q 327 42 363 13 q 400 -16 400 -66 q 400 -125 342 -162 q 283 -199 188 -199 q 92 -199 35 -167 q -22 -136 -22 -84 q -22 -49 2 -23 q 27 3 75 20 q 64 31 59 43 q 53 56 53 70 q 53 91 66 110 q 79 128 107 147 z"},"j":{"x_min":0,"x_max":248,"ha":248,"o":"m 42 2 l 78 319 q 79 331 80 337 q 80 343 80 348 q 80 363 71 370 q 62 377 44 377 q 26 377 19 381 q 11 384 11 392 q 11 411 68 414 q 77 415 82 415 q 112 417 142 424 q 171 430 173 430 q 182 430 186 425 q 191 419 191 409 q 191 407 189 395 q 188 383 187 373 l 143 -11 q 133 -97 101 -148 q 69 -198 25 -198 q -1 -198 -30 -178 q -58 -159 -58 -142 q -58 -134 -38 -131 q -17 -127 -8 -122 q 12 -110 24 -81 q 36 -51 42 2 z m 128 533 l 102 577 q 99 583 97 587 q 96 590 96 594 q 96 599 98 604 q 101 609 105 614 l 146 659 q 153 666 157 668 q 162 671 166 671 q 170 671 175 667 q 181 664 184 659 l 218 609 q 223 603 225 598 q 227 594 227 591 q 227 587 225 583 q 222 578 218 574 l 167 524 q 164 521 159 519 q 155 517 150 517 q 144 517 138 521 q 133 525 128 533 z"},"i":{"x_min":0,"x_max":273,"ha":273,"o":"m 144 533 l 118 577 q 115 583 113 587 q 112 590 112 594 q 112 598 114 604 q 117 609 121 614 l 162 659 q 169 666 173 668 q 178 671 182 671 q 186 671 191 667 q 197 664 200 659 l 234 609 q 239 603 241 598 q 243 594 243 591 q 243 587 240 583 q 238 578 234 574 l 183 524 q 180 521 175 519 q 171 517 166 517 q 160 517 154 521 q 148 525 144 533 z m 86 319 q 86 320 86 323 q 88 336 88 342 q 88 361 80 369 q 72 377 52 377 q 35 377 27 381 q 19 384 19 392 q 19 411 77 414 q 86 415 91 415 q 119 417 148 423 q 178 430 181 430 q 190 430 196 425 q 201 420 201 412 q 201 409 198 390 q 197 379 196 373 l 164 170 q 162 157 160 143 q 159 129 159 116 q 159 98 165 87 q 171 76 182 76 q 197 76 214 98 q 231 119 240 119 q 245 119 247 115 q 250 111 250 104 q 250 78 204 36 q 157 -6 115 -6 q 85 -6 69 17 q 52 39 52 79 q 52 98 54 122 q 57 146 61 172 z"},"y":{"x_min":0,"x_max":470,"ha":470,"o":"m 320 120 q 346 175 358 211 q 369 248 369 276 q 369 298 354 333 q 338 369 338 386 q 338 408 349 419 q 360 430 382 430 q 405 430 418 414 q 430 398 430 369 q 430 312 392 206 q 354 100 291 -5 q 238 -93 177 -145 q 116 -197 67 -197 q 36 -197 18 -182 q 1 -167 1 -139 q 1 -117 15 -103 q 30 -89 52 -89 q 65 -89 90 -103 q 115 -117 128 -117 q 166 -117 205 -71 q 244 -25 244 20 q 244 51 220 111 q 196 171 153 249 q 126 298 108 318 q 91 339 76 339 q 66 339 56 329 q 46 318 38 301 q 35 293 31 280 q 24 256 13 256 q 7 256 3 262 q -1 269 -1 279 q -1 333 36 381 q 73 428 115 428 q 187 428 314 134 z"},"@":{"x_min":0,"x_max":986,"ha":986,"o":"m 637 402 l 662 485 l 746 485 l 662 184 l 661 181 q 654 152 654 137 q 654 113 665 100 q 675 87 694 87 q 710 87 735 98 q 759 108 780 125 q 833 168 862 233 q 891 299 891 378 q 891 514 798 598 q 705 681 552 681 q 467 681 391 649 q 315 618 258 559 q 198 498 168 419 q 138 341 138 245 q 138 161 167 95 q 196 30 255 -19 q 307 -62 375 -85 q 444 -108 523 -108 q 604 -108 680 -83 q 755 -58 828 -6 l 846 -29 q 774 -83 692 -111 q 611 -138 523 -138 q 431 -138 354 -115 q 276 -93 219 -50 q 146 5 107 85 q 68 166 68 262 q 68 361 110 448 q 152 535 232 601 q 298 655 377 683 q 457 711 546 711 q 716 711 818 619 q 920 527 920 374 q 920 296 891 229 q 862 161 809 113 q 779 86 746 73 q 713 59 681 59 q 633 59 607 85 q 580 110 577 159 q 546 108 510 84 q 474 60 429 60 q 364 60 325 105 q 287 150 287 226 q 287 281 311 333 q 335 385 380 428 q 413 460 452 477 q 491 493 531 493 q 575 493 602 470 q 629 447 637 402 z m 610 377 q 610 417 592 442 q 573 466 543 466 q 512 466 486 444 q 460 422 434 372 q 406 320 392 270 q 377 220 377 179 q 377 139 395 114 q 413 90 441 90 q 471 90 497 110 q 523 130 550 175 q 577 222 594 277 q 610 333 610 377 z"},".":{"x_min":0,"x_max":271,"ha":271,"o":"m 149 156 l 205 93 q 208 90 209 86 q 210 83 210 77 q 210 73 208 68 q 206 63 202 60 l 135 -3 q 132 -6 128 -7 q 124 -9 118 -9 q 105 -9 72 25 q 39 60 39 75 q 39 82 45 90 q 51 99 66 114 q 94 143 108 154 q 123 164 132 164 q 136 164 141 162 q 146 159 149 156 z"},"p":{"x_min":0,"x_max":488,"ha":488,"o":"m 149 95 q 149 94 149 92 q 147 73 147 66 q 147 44 159 33 q 171 22 195 22 q 260 22 305 91 q 350 160 350 260 q 350 328 323 362 q 295 395 239 395 q 208 395 198 388 q 187 381 184 359 z m 24 -98 l 86 369 q 69 364 51 356 q 33 348 30 348 q 25 348 21 353 q 16 357 16 362 q 16 381 91 407 l 91 407 l 104 502 q 107 525 116 537 q 125 549 143 554 l 165 560 q 167 561 170 562 q 180 564 184 564 q 196 564 203 559 q 209 553 209 543 q 209 537 207 526 q 207 522 206 520 l 194 424 q 225 428 242 430 q 259 431 273 431 q 363 431 409 388 q 456 346 456 264 q 456 153 380 72 q 303 -9 200 -9 q 188 -9 172 -7 q 157 -6 137 -3 l 124 -97 q 123 -105 122 -113 q 121 -122 121 -130 q 121 -146 127 -154 q 132 -163 144 -167 q 150 -169 161 -170 q 163 -171 164 -171 q 165 -171 166 -171 q 189 -175 189 -187 q 189 -194 184 -198 q 178 -202 168 -202 q 166 -202 156 -201 q 116 -198 79 -198 q 36 -198 -7 -203 q -16 -204 -18 -204 q -24 -204 -29 -200 q -33 -196 -33 -191 q -33 -179 -13 -172 q -6 -170 -4 -169 q 6 -163 13 -146 q 20 -128 24 -98 z"},"X":{"x_min":0,"x_max":738,"ha":738,"o":"m 169 129 l 331 319 q 333 322 335 327 q 337 332 337 337 q 337 340 336 345 q 334 350 332 356 l 256 544 q 237 590 216 611 q 195 632 168 632 q 142 632 124 613 q 105 594 105 566 q 105 546 118 522 q 132 499 132 491 q 132 484 127 480 q 122 475 114 475 q 93 475 75 503 q 57 530 57 568 q 57 627 103 667 q 148 708 214 708 q 266 708 301 681 q 335 654 361 592 l 412 467 q 419 450 422 445 q 426 439 429 439 q 432 439 439 446 q 447 453 456 464 l 545 570 q 557 584 562 595 q 567 606 567 617 q 567 629 560 638 q 553 647 539 653 q 529 657 525 658 q 521 660 517 662 q 501 667 497 671 q 493 674 493 680 q 493 690 501 695 q 509 700 524 700 q 528 700 543 699 q 596 694 641 694 q 670 694 701 697 q 732 700 735 700 q 747 700 752 697 q 757 693 757 685 q 757 676 749 668 q 741 661 723 654 q 688 641 663 623 q 639 604 604 565 l 458 396 q 454 391 452 386 q 450 382 450 378 q 450 375 455 362 l 455 361 l 553 123 q 570 82 590 62 q 611 43 638 43 q 657 43 681 57 q 704 71 710 71 q 716 71 721 66 q 726 61 726 55 q 726 32 684 10 q 643 -12 588 -12 q 531 -12 496 11 q 461 35 441 87 l 374 255 q 370 266 366 271 q 362 276 359 276 q 356 276 351 271 q 345 265 337 256 l 228 125 q 220 114 215 102 q 210 90 210 79 q 210 63 221 53 q 231 43 255 38 l 270 35 q 292 32 298 27 q 305 23 305 15 q 305 5 297 0 q 289 -6 273 -6 q 269 -6 255 -5 q 203 0 157 0 q 102 0 48 -4 q 39 -5 37 -5 q 25 -5 20 -1 q 15 2 15 10 q 15 19 23 26 q 31 34 50 41 q 87 55 112 73 q 137 92 169 129 z"},"*":{"x_min":0,"x_max":500,"ha":500,"o":"m 270 515 q 306 537 340 586 q 374 636 404 636 q 424 636 439 618 q 455 600 455 577 q 455 552 441 541 q 426 529 383 526 q 341 522 319 517 q 298 512 279 502 q 300 490 325 484 q 350 478 384 476 q 424 473 440 461 q 455 449 455 423 q 455 400 439 383 q 422 366 401 366 q 374 366 340 416 q 307 465 272 487 q 273 445 295 399 q 318 352 318 339 q 318 317 303 304 q 288 290 264 290 q 240 290 225 303 q 210 316 210 338 q 210 351 232 399 q 254 446 257 487 q 219 464 186 415 q 153 366 125 366 q 103 366 87 384 q 71 402 71 425 q 71 446 86 459 q 102 473 128 475 q 134 476 145 476 q 210 480 248 500 q 204 523 132 526 q 126 527 123 527 q 99 529 85 542 q 71 555 71 576 q 71 600 87 618 q 103 636 123 636 q 153 636 186 588 q 218 540 255 515 q 253 559 231 604 q 209 649 209 663 q 209 685 224 699 q 239 713 263 713 q 288 713 303 699 q 318 685 318 662 q 318 651 296 605 q 274 558 270 515 z"},"Y":{"x_min":0,"x_max":655,"ha":655,"o":"m 369 147 q 369 145 369 141 q 367 126 367 120 q 367 83 377 66 q 388 49 413 41 q 420 39 425 38 q 431 37 435 36 q 436 36 438 35 q 472 27 472 11 q 472 2 465 -2 q 458 -7 445 -7 q 442 -7 396 -3 q 350 0 307 0 q 262 0 217 -3 q 171 -6 169 -6 q 159 -6 154 -2 q 149 1 149 10 q 149 26 183 38 l 184 38 q 186 39 189 40 q 192 41 198 43 q 226 53 236 73 q 247 93 253 155 l 262 240 q 263 247 264 251 q 264 256 264 260 q 264 272 261 285 q 257 297 250 312 l 134 547 q 131 553 125 566 q 95 627 72 645 q 64 651 46 660 q 27 668 27 681 q 27 690 34 695 q 41 700 54 700 q 62 700 103 697 q 143 693 175 693 q 204 693 242 696 q 280 699 289 699 q 299 699 304 695 q 309 691 309 683 q 309 669 282 662 q 276 660 272 659 q 255 654 246 641 q 237 628 237 609 q 237 599 240 587 q 243 576 249 563 l 330 398 q 339 378 346 368 q 353 358 357 358 q 361 358 370 367 q 378 376 389 393 l 501 563 q 511 577 515 588 q 519 599 519 609 q 519 626 508 637 q 497 649 475 655 q 471 656 464 658 q 431 666 431 682 q 431 691 438 696 q 444 700 458 700 q 470 700 506 697 q 542 693 567 693 q 587 693 620 696 q 653 699 666 699 q 676 699 681 695 q 686 691 686 683 q 686 675 642 646 q 599 617 564 565 l 410 335 q 397 317 391 302 q 385 288 383 272 z"},"c":{"x_min":0,"x_max":405,"ha":405,"o":"m 15 164 q 15 279 87 357 q 159 435 267 435 q 316 435 351 412 q 386 390 386 363 q 386 343 368 324 q 351 304 331 304 q 318 304 309 312 q 299 320 286 342 l 285 344 q 254 396 219 396 q 174 396 141 341 q 109 287 109 205 q 109 132 141 91 q 174 49 230 49 q 267 49 299 68 q 304 71 305 71 q 308 71 324 85 q 340 99 349 99 q 356 99 359 96 q 362 93 362 86 q 362 58 301 21 q 241 -16 172 -16 q 101 -16 58 33 q 15 82 15 164 z"},"!":{"x_min":0,"x_max":368,"ha":368,"o":"m 180 156 l 236 93 q 239 90 240 86 q 242 82 242 77 q 242 73 240 69 q 237 64 233 60 l 166 -3 q 163 -6 159 -7 q 155 -9 150 -9 q 137 -9 104 25 q 71 60 71 75 q 71 82 77 91 q 83 100 97 114 q 124 142 139 153 q 154 164 164 164 q 168 164 172 162 q 177 160 180 156 z m 155 315 l 153 644 q 153 684 166 695 q 179 706 217 706 q 267 706 280 699 q 294 691 294 669 q 294 666 293 659 q 292 653 289 639 l 209 315 q 198 272 191 261 q 185 250 175 250 q 164 250 159 261 q 155 273 155 315 z"},"/":{"x_min":0,"x_max":278,"ha":278,"o":"m 15 -54 q 5 -79 -5 -86 q -15 -93 -39 -93 q -49 -93 -53 -90 q -57 -86 -57 -79 q -57 -72 -50 -54 q -47 -48 -46 -44 l 235 675 q 245 699 254 707 q 264 714 291 714 q 300 714 303 711 q 306 708 306 700 q 306 697 303 689 q 301 682 294 665 z"},"[":{"x_min":0,"x_max":382,"ha":382,"o":"m 41 -151 l 137 694 l 309 694 q 323 694 328 690 q 334 686 334 675 q 334 667 327 662 q 321 657 309 657 l 254 657 q 238 657 229 649 q 221 642 219 626 l 139 -74 q 139 -76 139 -80 q 138 -83 138 -85 q 138 -99 144 -105 q 150 -111 163 -111 l 221 -111 q 231 -111 237 -115 q 242 -120 242 -129 q 242 -139 235 -145 q 227 -151 214 -151 z"},"6":{"x_min":0,"x_max":541,"ha":541,"o":"m 402 188 q 402 279 367 333 q 332 387 272 387 q 211 387 176 346 q 141 305 141 234 q 141 140 181 80 q 221 20 283 20 q 339 20 370 64 q 402 109 402 188 z m 159 376 q 197 411 240 427 q 282 444 333 444 q 407 444 456 387 q 505 331 505 243 q 505 132 436 59 q 367 -14 263 -14 q 158 -14 92 62 q 25 139 25 262 q 25 375 83 472 q 142 569 244 627 q 297 657 359 674 q 421 691 476 691 q 494 691 504 686 q 514 682 514 673 q 514 659 459 649 q 403 639 361 621 q 282 587 231 526 q 181 464 159 376 z"},"r":{"x_min":0,"x_max":359,"ha":359,"o":"m 167 54 q 166 48 165 39 q 157 -2 134 -2 l 81 -2 q 69 -2 65 2 q 61 5 61 19 q 61 25 62 35 q 63 45 65 58 l 92 212 q 95 227 96 241 q 97 255 97 269 q 97 299 88 317 q 79 335 64 335 q 48 335 31 312 q 14 290 8 290 q 3 290 0 294 q -3 298 -3 303 q -3 337 38 385 q 79 434 111 434 q 141 434 154 408 q 167 382 167 325 l 172 322 q 206 378 244 407 q 281 436 320 436 q 340 436 350 428 q 361 419 361 404 q 361 378 350 348 q 339 318 327 318 q 314 318 298 342 q 282 366 266 366 q 220 366 190 189 l 190 187 z"},"2":{"x_min":0,"x_max":541,"ha":541,"o":"m 37 68 l 183 231 q 276 335 313 398 q 350 461 350 512 q 350 558 323 582 q 296 607 246 607 q 216 607 184 593 q 152 578 128 553 q 123 548 115 538 q 102 522 95 522 q 88 522 84 525 q 80 528 80 534 q 80 547 94 570 q 107 593 129 615 q 163 648 206 666 q 250 684 299 684 q 374 684 420 642 q 467 601 467 535 q 467 491 438 439 q 408 388 348 328 l 143 123 q 139 119 136 114 q 133 109 133 107 q 133 100 157 96 q 182 93 235 93 q 302 93 335 100 q 369 107 395 124 q 408 133 425 152 q 442 171 453 171 q 459 171 462 166 q 466 161 466 151 q 466 142 442 98 q 424 64 413 42 q 410 36 406 27 q 393 -3 361 -3 q 357 -3 311 0 q 264 3 222 3 q 138 3 55 -2 q 40 -3 37 -3 q 20 -3 11 1 q 2 5 2 13 q 2 30 33 64 z"},"{":{"x_min":0,"x_max":500,"ha":500,"o":"m 415 712 q 353 711 329 686 q 306 660 306 583 l 306 516 q 306 406 279 366 q 251 326 177 310 q 251 294 279 254 q 306 214 306 104 l 306 37 q 306 -40 329 -65 q 352 -90 415 -91 l 415 -119 l 410 -119 q 302 -119 261 -83 q 220 -47 220 50 l 220 148 q 220 227 192 257 q 164 288 87 294 l 87 327 q 165 334 192 364 q 220 394 220 473 l 220 571 q 220 668 261 704 q 303 740 415 740 z"},"9":{"x_min":0,"x_max":541,"ha":541,"o":"m 137 483 q 137 392 173 338 q 208 284 268 284 q 328 284 363 325 q 398 367 398 438 q 398 532 358 592 q 319 651 256 651 q 200 651 169 606 q 137 562 137 483 z m 380 295 q 343 261 300 244 q 257 227 206 227 q 132 227 83 284 q 34 341 34 428 q 34 539 103 612 q 172 685 276 685 q 381 685 448 609 q 514 532 514 410 q 514 297 456 199 q 397 102 296 45 q 243 15 180 -2 q 117 -20 63 -20 q 45 -20 35 -15 q 25 -10 25 -1 q 25 13 81 22 q 137 32 179 50 q 258 84 308 146 q 358 207 380 295 z"}," ":{"x_min":0,"x_max":270,"ha":270,"o":""},"I":{"x_min":0,"x_max":348,"ha":348,"o":"m 95 155 l 139 548 q 139 549 139 550 q 141 570 141 579 q 141 611 130 629 q 119 647 94 655 q 91 656 86 657 q 80 659 77 660 l 77 660 q 45 667 45 683 q 45 692 52 697 q 59 701 72 701 q 77 701 121 698 q 165 694 203 694 q 237 694 277 698 q 317 701 324 701 q 334 701 339 697 q 344 693 344 685 q 344 677 339 672 q 334 667 319 661 q 317 660 309 656 q 301 652 297 649 q 280 637 271 614 q 263 591 257 540 l 213 147 q 213 144 212 136 q 211 123 211 119 q 211 83 221 65 q 232 47 257 39 q 260 38 266 37 q 272 35 275 34 l 276 34 q 306 27 306 11 q 306 2 300 -2 q 293 -7 280 -7 q 274 -7 231 -3 q 188 0 152 0 q 116 0 74 -3 q 33 -6 28 -6 q 18 -6 13 -2 q 8 1 8 10 q 8 24 31 33 l 32 33 q 34 34 39 36 q 50 42 55 45 q 72 57 81 80 q 89 103 95 155 z"},"H":{"x_min":0,"x_max":793,"ha":793,"o":"m 553 390 q 560 390 564 394 q 569 398 570 406 l 586 548 q 586 549 586 551 q 588 570 588 579 q 588 611 577 629 q 566 647 542 655 q 539 656 533 657 q 527 659 524 660 l 523 660 q 493 667 493 683 q 493 692 500 697 q 506 701 519 701 q 524 701 566 698 q 609 694 647 694 q 681 694 722 698 q 763 701 769 701 q 779 701 784 697 q 789 693 789 685 q 789 677 784 672 q 779 667 764 661 q 762 660 754 656 q 746 652 742 649 q 725 637 716 614 q 708 591 702 540 l 658 147 q 658 143 657 137 q 656 123 656 119 q 656 83 666 65 q 677 47 702 39 q 705 38 711 37 q 717 35 720 34 l 721 34 q 751 27 751 11 q 751 2 745 -2 q 738 -7 725 -7 q 719 -7 677 -3 q 634 0 597 0 q 563 0 522 -3 q 481 -6 475 -6 q 464 -6 460 -2 q 455 1 455 10 q 455 24 479 33 l 479 33 q 481 34 486 36 q 497 42 502 45 q 519 57 528 81 q 537 105 542 155 l 561 321 l 561 323 q 561 330 557 333 q 553 337 546 337 l 242 337 q 235 337 230 333 q 226 329 225 321 l 206 147 q 206 143 205 136 q 204 123 204 119 q 204 83 215 65 q 225 47 250 39 q 253 38 259 37 q 265 35 268 34 l 269 34 q 300 27 300 11 q 300 2 293 -2 q 286 -7 273 -7 q 268 -7 226 -3 q 183 0 145 0 q 111 0 70 -3 q 29 -6 23 -6 q 13 -6 8 -2 q 3 1 3 10 q 3 24 26 33 l 27 33 q 29 34 34 36 q 45 42 50 45 q 67 58 76 81 q 85 105 91 155 l 134 548 q 134 549 134 551 q 136 570 136 579 q 136 611 125 629 q 114 647 90 655 q 87 656 82 657 q 76 659 73 660 l 73 660 q 41 667 41 683 q 41 692 48 697 q 55 701 68 701 q 73 701 116 698 q 159 694 196 694 q 230 694 270 698 q 311 701 317 701 q 328 701 332 697 q 337 693 337 685 q 337 677 332 672 q 327 667 312 661 q 310 660 302 656 q 294 652 290 649 q 273 637 264 614 q 255 591 250 540 l 235 407 l 235 404 q 235 397 238 394 q 241 390 246 390 z"},"4":{"x_min":0,"x_max":541,"ha":541,"o":"m 392 156 q 384 105 377 31 q 370 -44 360 -54 q 350 -65 323 -74 q 296 -84 277 -84 q 269 -84 265 -78 q 261 -73 261 -62 q 261 -51 275 21 q 289 92 289 140 q 289 152 277 156 q 264 160 216 160 q 159 160 100 157 q 42 155 41 155 q 16 155 6 162 q -4 169 -4 187 q -4 208 29 252 q 62 297 170 416 q 325 586 375 636 q 424 686 436 686 q 442 686 447 682 q 452 678 452 672 q 452 668 447 637 q 417 447 400 240 q 403 239 406 239 q 410 239 416 239 q 450 239 472 258 q 494 278 497 278 q 501 278 505 273 q 508 269 508 261 q 508 251 502 225 q 497 199 491 184 q 484 168 473 161 q 462 155 442 155 q 441 155 436 155 q 414 156 392 156 z m 298 238 l 324 450 q 327 471 332 492 q 336 514 344 538 q 234 427 159 342 q 84 256 84 246 q 84 241 92 238 q 99 235 112 235 q 175 235 221 236 q 268 236 298 238 z"},"~":{"x_min":0,"x_max":833,"ha":833,"o":"m 747 293 q 697 258 651 241 q 604 224 561 224 q 540 224 516 228 q 492 232 468 241 q 456 245 431 254 q 327 290 275 290 q 235 290 190 271 q 145 253 87 212 l 87 303 q 139 338 186 356 q 232 373 276 373 q 306 373 337 367 q 368 361 419 344 q 426 342 440 336 q 520 308 562 308 q 604 308 648 326 q 693 344 747 383 z"},"D":{"x_min":0,"x_max":752,"ha":752,"o":"m 206 145 q 206 141 205 134 q 204 121 204 117 q 204 73 224 55 q 243 37 291 37 q 353 37 406 61 q 460 85 502 132 q 547 183 574 257 q 601 331 601 406 q 601 520 537 588 q 473 657 367 657 q 304 657 281 636 q 257 615 249 535 z m 91 155 l 134 548 q 134 549 134 551 q 136 570 136 579 q 136 611 125 629 q 114 647 90 655 q 87 656 82 657 q 76 659 73 660 l 73 660 q 41 667 41 683 q 41 692 48 697 q 55 701 68 701 q 69 701 117 698 q 165 694 213 694 q 253 694 318 697 q 382 700 405 700 q 559 700 643 625 q 728 550 728 413 q 728 310 682 220 q 635 129 552 70 q 500 33 434 13 q 368 -6 294 -6 q 265 -6 213 -3 q 161 0 139 0 q 109 0 70 -3 q 31 -6 23 -6 q 13 -6 8 -2 q 3 1 3 10 q 3 24 26 33 l 27 33 q 29 34 34 36 q 45 42 50 45 q 67 58 76 81 q 85 105 91 155 z"},"^":{"x_min":0,"x_max":1000,"ha":1000,"o":"m 552 714 l 797 438 l 746 438 l 499 632 l 252 438 l 201 438 l 447 714 z"},"0":{"x_min":0,"x_max":541,"ha":541,"o":"m 263 29 q 332 29 369 117 q 406 205 406 368 q 406 503 373 576 q 339 649 278 649 q 211 649 173 561 q 134 474 134 319 q 134 174 166 102 q 199 29 263 29 z m 232 -14 q 138 -14 80 62 q 23 139 23 267 q 23 348 45 424 q 68 500 110 562 q 153 625 203 655 q 254 686 313 686 q 405 686 461 611 q 517 536 517 410 q 517 322 492 241 q 467 161 420 98 q 381 45 331 15 q 282 -14 232 -14 z"},"F":{"x_min":0,"x_max":579,"ha":579,"o":"m 91 155 l 134 548 q 134 549 134 551 q 136 570 136 579 q 136 611 125 629 q 114 647 90 655 q 87 656 82 657 q 76 659 73 660 l 73 660 q 41 667 41 683 q 41 692 48 697 q 55 701 68 701 q 71 701 84 700 q 161 694 240 694 q 281 694 384 697 q 488 699 550 699 q 581 699 586 681 q 592 663 592 584 q 592 552 588 543 q 583 533 572 533 q 554 533 548 564 q 542 596 536 606 q 522 628 472 639 q 421 650 334 650 q 283 650 270 634 q 257 618 250 544 l 235 402 l 235 399 q 235 393 238 389 q 241 386 246 386 l 363 386 q 394 386 410 394 q 426 402 440 421 q 445 428 453 441 q 468 467 481 467 q 487 467 491 461 q 495 455 495 446 q 495 442 489 396 q 483 351 483 311 q 483 302 483 289 q 484 277 484 274 q 484 256 479 246 q 474 236 465 236 q 450 236 440 267 q 430 298 423 309 q 414 324 394 332 q 375 339 343 339 l 243 339 q 236 339 231 335 q 227 331 226 323 l 206 147 q 206 144 205 139 q 204 125 204 119 q 204 83 215 65 q 225 47 250 39 q 253 38 259 37 q 265 35 268 34 l 269 34 q 300 27 300 11 q 300 2 293 -2 q 286 -7 273 -7 q 268 -7 226 -3 q 183 0 145 0 q 111 0 70 -3 q 29 -6 23 -6 q 13 -6 8 -2 q 3 1 3 10 q 3 24 26 33 l 27 33 q 29 34 34 36 q 45 42 50 45 q 67 58 76 81 q 85 105 91 155 z"},"`":{"x_min":0,"x_max":500,"ha":500,"o":"m 387 489 l 336 489 l 209 583 q 192 596 185 605 q 178 614 178 624 q 178 643 190 654 q 201 666 219 666 q 232 666 243 659 q 255 652 267 637 z"},"k":{"x_min":0,"x_max":456,"ha":456,"o":"m 147 158 l 134 54 q 129 18 123 8 q 116 -2 101 -2 l 50 -2 q 39 -2 35 3 q 31 8 31 24 q 31 33 31 41 q 32 49 33 58 l 97 622 q 97 624 98 629 q 98 634 98 637 q 98 659 91 668 q 83 678 67 678 q 65 678 58 677 q 50 677 46 677 q 38 677 32 681 q 27 685 27 691 q 27 709 81 716 q 88 717 93 718 q 124 723 155 731 q 186 739 188 739 q 198 739 203 733 q 208 728 208 716 q 208 714 208 709 q 207 704 205 683 l 155 234 q 191 250 223 279 q 256 308 276 341 q 285 356 298 385 q 321 435 347 435 q 368 435 381 423 q 395 410 395 392 q 395 372 372 348 q 349 324 262 265 q 301 219 336 153 q 372 87 387 87 q 400 87 414 110 q 427 133 435 133 q 439 133 443 128 q 446 124 446 118 q 446 85 409 40 q 373 -6 343 -6 q 298 -6 250 97 q 214 170 187 210 l 164 197 q 150 189 147 162 q 147 160 147 158 z"},"u":{"x_min":0,"x_max":528,"ha":528,"o":"m 334 202 l 328 205 q 277 105 221 49 q 165 -7 117 -7 q 88 -7 73 11 q 58 28 58 63 q 58 76 60 94 q 62 111 68 140 l 93 266 q 95 278 97 291 q 98 303 98 314 q 98 333 92 344 q 85 355 75 355 q 60 355 40 326 q 20 298 13 298 q 7 298 3 302 q 0 306 0 313 q 0 340 47 386 q 93 431 138 431 q 168 431 184 408 q 200 384 200 341 q 200 295 184 217 q 167 138 167 110 q 167 97 171 89 q 176 82 184 82 q 212 82 257 143 q 302 203 336 291 q 352 332 364 383 q 374 428 395 428 l 446 428 q 456 428 462 422 q 468 416 468 406 q 468 403 467 395 q 465 387 462 368 l 429 203 q 423 174 420 152 q 417 130 417 114 q 417 96 422 88 q 427 80 439 80 q 456 80 475 105 q 495 131 502 131 q 507 131 510 127 q 514 123 514 118 q 514 83 465 38 q 416 -7 371 -7 q 341 -7 326 13 q 311 33 311 74 q 311 97 316 127 q 322 158 334 202 z"},"]":{"x_min":0,"x_max":382,"ha":382,"o":"m 325 694 l 229 -151 l 57 -151 q 44 -151 38 -147 q 32 -143 32 -133 q 32 -124 39 -118 q 45 -113 57 -113 l 112 -113 q 128 -113 137 -105 q 146 -97 147 -82 l 227 618 q 227 620 228 624 q 228 627 228 629 q 228 642 222 648 q 216 654 203 654 l 145 654 q 134 654 129 659 q 124 664 124 673 q 124 683 131 688 q 139 694 152 694 z"},"U":{"x_min":0,"x_max":819,"ha":819,"o":"m 100 207 q 100 283 120 408 q 140 533 140 581 q 140 612 129 630 q 118 648 94 655 q 91 656 86 657 q 80 659 77 660 l 77 660 q 45 667 45 683 q 45 692 52 697 q 59 701 72 701 q 77 701 120 698 q 163 694 200 694 q 234 694 275 698 q 315 701 322 701 q 333 701 337 697 q 342 693 342 685 q 342 672 318 661 l 317 660 l 315 659 q 288 646 278 631 q 272 621 266 598 q 260 575 254 540 q 240 455 233 376 q 225 296 225 243 q 225 142 269 89 q 313 36 398 36 q 493 36 553 93 q 614 150 636 261 q 655 355 665 437 q 676 519 676 560 q 676 594 664 613 q 653 632 618 650 q 608 655 593 661 q 568 670 568 683 q 568 692 575 697 q 582 701 595 701 q 603 701 639 698 q 676 694 704 694 q 730 694 766 698 q 803 701 813 701 q 823 701 828 697 q 833 693 833 685 q 833 671 807 659 q 793 652 785 647 q 767 635 756 611 q 745 587 735 533 q 725 476 708 379 q 682 223 669 187 q 632 83 556 32 q 480 -19 365 -19 q 236 -19 168 39 q 100 97 100 207 z"},"o":{"x_min":0,"x_max":468,"ha":468,"o":"m 255 403 q 197 403 157 328 q 118 254 118 141 q 118 79 138 48 q 157 16 196 16 q 252 16 292 92 q 331 167 331 280 q 331 341 312 372 q 293 403 257 403 z m 13 164 q 13 279 83 357 q 153 435 258 435 q 337 435 387 385 q 436 336 436 257 q 436 140 365 62 q 295 -16 189 -16 q 112 -16 62 34 q 13 84 13 164 z"},"N":{"x_min":0,"x_max":774,"ha":774,"o":"m 632 525 q 633 531 633 540 q 634 549 634 560 q 634 595 620 616 q 607 638 577 650 q 567 655 548 659 q 546 659 546 659 l 545 659 q 512 666 512 683 q 512 692 519 697 q 525 701 539 701 q 549 701 568 700 q 587 698 593 698 q 610 696 628 696 q 646 695 665 695 q 684 695 701 696 q 718 696 732 698 q 745 700 754 700 q 764 701 772 701 q 782 701 787 697 q 792 693 792 685 q 792 678 787 673 q 782 667 766 659 q 764 658 759 655 q 753 652 751 651 q 728 638 714 611 q 700 584 694 540 l 622 20 q 620 6 615 0 q 611 -7 605 -7 q 596 -7 587 0 q 578 7 559 35 l 202 545 l 153 170 q 152 165 152 157 q 152 150 152 134 q 152 99 163 78 q 174 58 198 48 q 209 43 229 38 q 235 37 237 36 q 260 31 267 25 q 274 20 274 11 q 274 2 267 -2 q 261 -7 247 -7 q 230 -7 188 -3 q 146 0 120 0 q 96 0 61 -3 q 25 -6 14 -6 q 3 -6 -1 -2 q -6 1 -6 10 q -6 18 -1 23 q 3 28 19 35 q 21 37 26 39 q 31 42 34 43 q 58 57 71 82 q 84 108 91 155 l 136 439 q 137 444 138 453 q 146 503 146 534 q 146 581 129 610 q 112 640 80 650 q 72 652 58 655 q 52 656 49 657 q 27 660 20 665 q 13 670 13 679 q 13 689 21 695 q 29 701 43 701 q 53 701 83 698 q 112 695 132 695 q 145 695 168 696 q 191 697 202 697 q 234 697 265 652 q 271 643 275 637 l 593 186 z"},"+":{"x_min":0,"x_max":833,"ha":833,"o":"m 458 596 l 458 339 l 709 339 l 709 258 l 458 258 l 458 0 l 375 0 l 375 258 l 124 258 l 124 339 l 375 339 l 375 596 z"},"G":{"x_min":0,"x_max":725,"ha":725,"o":"m 618 59 q 580 52 489 17 q 398 -19 337 -19 q 199 -19 115 73 q 30 165 30 316 q 30 491 130 601 q 230 712 388 712 q 460 712 535 686 q 611 659 613 659 q 624 659 637 665 q 649 671 650 671 q 661 671 666 665 q 671 660 671 647 q 671 645 670 636 q 667 605 667 578 q 667 543 669 505 q 672 466 672 462 q 672 453 668 448 q 665 443 658 443 q 648 443 631 481 q 623 501 617 512 q 579 589 521 629 q 463 669 391 669 q 279 669 219 584 q 158 499 158 341 q 158 191 211 112 q 264 32 364 32 q 426 32 466 64 q 506 95 512 150 l 519 217 q 519 219 520 223 q 520 227 520 229 q 520 253 508 270 q 497 287 474 297 q 466 301 452 304 q 450 305 449 305 l 448 305 q 420 312 420 325 q 420 335 429 340 q 439 345 458 345 q 461 345 497 343 q 533 340 565 340 q 603 340 641 343 q 679 345 680 345 q 696 345 703 340 q 711 335 711 325 q 711 319 707 315 q 703 312 688 306 q 677 302 671 300 q 666 297 662 294 q 652 286 646 272 q 641 257 636 218 z"},"q":{"x_min":0,"x_max":468,"ha":468,"o":"m 300 201 l 318 318 q 319 329 320 338 q 321 347 321 355 q 321 379 308 391 q 294 404 269 404 q 204 404 159 334 q 114 265 114 163 q 114 110 131 84 q 148 58 183 58 q 224 58 257 98 q 290 138 300 201 z m 359 -97 q 357 -108 357 -117 q 356 -125 356 -130 q 356 -160 392 -171 l 392 -171 q 404 -174 408 -178 q 412 -181 412 -187 q 412 -194 406 -198 q 401 -202 391 -202 q 391 -202 368 -200 q 346 -198 324 -198 l 308 -198 q 262 -198 214 -203 q 206 -204 204 -204 q 198 -204 194 -200 q 189 -195 189 -190 q 189 -185 193 -181 q 196 -178 207 -176 q 208 -176 209 -175 q 223 -171 230 -167 q 242 -160 248 -147 q 254 -135 259 -98 l 284 85 q 256 42 217 17 q 177 -8 136 -8 q 81 -8 46 33 q 12 75 12 142 q 12 196 33 250 q 55 304 94 348 q 133 393 175 414 q 216 435 267 435 q 295 435 325 421 q 354 407 356 407 q 372 407 394 440 q 416 472 426 472 q 431 472 434 468 q 437 464 437 460 q 437 457 429 414 q 422 372 416 329 z"},"d":{"x_min":0,"x_max":491,"ha":491,"o":"m 300 209 l 314 318 q 315 325 315 332 q 316 340 316 352 q 316 377 304 389 q 292 402 267 402 q 203 402 158 332 q 114 263 114 162 q 114 110 131 83 q 148 57 182 57 q 224 57 258 100 q 292 142 300 209 z m 347 622 q 347 624 348 629 q 348 634 348 637 q 348 659 341 668 q 333 678 317 678 q 315 678 308 677 q 300 677 296 677 q 288 677 282 681 q 276 685 276 691 q 276 709 331 716 q 338 717 343 718 q 374 723 405 731 q 436 739 438 739 q 448 739 453 733 q 458 728 458 716 q 458 714 456 693 l 455 683 l 395 168 q 393 152 392 138 q 391 124 391 112 q 391 94 397 83 q 403 73 413 73 q 428 73 445 94 q 462 115 471 115 q 475 115 478 112 q 480 108 480 102 q 480 77 437 34 q 394 -9 358 -9 q 330 -9 314 17 q 299 43 299 91 l 299 99 l 293 98 q 259 45 219 19 q 180 -8 136 -8 q 80 -8 46 33 q 12 74 12 142 q 12 196 33 250 q 55 304 94 348 q 133 393 175 414 q 216 435 267 435 q 281 435 296 431 q 311 428 324 421 z"},"1":{"x_min":0,"x_max":541,"ha":541,"o":"m 248 500 q 250 516 250 525 q 251 534 251 536 q 251 563 240 576 q 229 589 205 589 q 197 589 184 586 q 170 583 165 583 q 155 583 150 587 q 145 592 145 600 q 145 620 216 634 q 224 635 227 636 q 272 645 311 665 q 349 685 354 685 q 359 685 363 680 q 367 675 367 668 q 367 665 366 652 q 365 649 365 647 l 310 147 q 310 146 310 143 q 308 125 308 119 q 308 84 319 66 q 329 48 353 41 q 362 39 378 36 q 417 29 417 11 q 417 2 410 -2 q 403 -7 390 -7 q 368 -7 327 -3 q 285 0 265 0 q 237 0 191 -3 q 146 -6 129 -6 q 119 -6 114 -2 q 109 1 109 10 q 109 19 115 24 q 120 29 138 33 q 140 34 143 34 q 146 35 152 36 q 178 44 191 71 q 205 98 211 155 z"},"5":{"x_min":0,"x_max":541,"ha":541,"o":"m 144 430 q 152 430 166 431 q 195 432 203 432 q 326 432 396 377 q 466 322 466 228 q 466 124 380 55 q 294 -14 160 -14 q 88 -14 38 2 q -11 18 -11 38 q -11 46 -5 53 q 2 59 11 59 q 13 59 57 47 q 101 34 144 34 q 243 34 306 80 q 368 126 368 198 q 368 261 320 298 q 271 336 190 336 q 176 336 156 335 q 136 334 129 334 q 102 334 93 340 q 83 347 83 364 q 83 371 106 449 q 129 528 147 608 q 147 610 148 613 q 149 616 150 621 q 159 662 207 663 l 227 663 l 378 668 q 424 669 455 691 q 485 712 487 712 q 494 712 497 709 q 500 706 500 699 q 500 690 479 644 q 468 618 461 602 q 453 584 442 579 q 432 574 389 572 l 246 568 q 241 568 230 567 q 182 566 173 541 q 166 521 158 492 q 150 463 144 430 z"}}}
